<svg width="20" height="21" viewBox="0 0 20 21" fill="none" xmlns="http://www.w3.org/2000/svg">
<path d="M2 6H16V4H2V6ZM2 20C1.45 20 0.979333 19.8043 0.588 19.413C0.196667 19.0217 0.000666667 18.5507 0 18V4C0 3.45 0.196 2.97934 0.588 2.588C0.98 2.19667 1.45067 2.00067 2 2H3V1C3 0.71667 3.096 0.479337 3.288 0.288004C3.48 0.0966702 3.71733 0.000670115 4 3.44827e-06C4.28267 -0.000663218 4.52033 0.0953369 4.713 0.288004C4.90567 0.48067 5.00133 0.718003 5 1V2H13V1C13 0.71667 13.096 0.479337 13.288 0.288004C13.48 0.0966702 13.7173 0.000670115 14 3.44827e-06C14.2827 -0.000663218 14.5203 0.0953369 14.713 0.288004C14.9057 0.48067 15.0013 0.718003 15 1V2H16C16.55 2 17.021 2.196 17.413 2.588C17.805 2.98 18.0007 3.45067 18 4V8.675C18 8.95834 17.904 9.196 17.712 9.388C17.52 9.58 17.2827 9.67567 17 9.675C16.7173 9.67434 16.48 9.57834 16.288 9.387C16.096 9.19567 16 8.95834 16 8.675V8H2V18H7.8C8.08333 18 8.321 18.096 8.513 18.288C8.705 18.48 8.80067 18.7173 8.8 19C8.79933 19.2827 8.70333 19.5203 8.512 19.713C8.32067 19.9057 8.08333 20.0013 7.8 20H2ZM15 21C13.6167 21 12.4377 20.5123 11.463 19.537C10.4883 18.5617 10.0007 17.3827 10 16C9.99933 14.6173 10.487 13.4383 11.463 12.463C12.439 11.4877 13.618 11 15 11C16.382 11 17.5613 11.4877 18.538 12.463C19.5147 13.4383 20.002 14.6173 20 16C19.998 17.3827 19.5103 18.562 18.537 19.538C17.5637 20.514 16.3847 21.0013 15 21ZM15.5 15.8V13.5C15.5 13.3667 15.45 13.25 15.35 13.15C15.25 13.05 15.1333 13 15 13C14.8667 13 14.75 13.05 14.65 13.15C14.55 13.25 14.5 13.3667 14.5 13.5V15.775C14.5 15.9083 14.525 16.0377 14.575 16.163C14.625 16.2883 14.7 16.4007 14.8 16.5L16.325 18.025C16.425 18.125 16.5417 18.175 16.675 18.175C16.8083 18.175 16.925 18.125 17.025 18.025C17.125 17.925 17.175 17.8083 17.175 17.675C17.175 17.5417 17.125 17.425 17.025 17.325L15.5 15.8Z" fill="#121212"/>
</svg>
