<svg width="8" height="10" viewBox="0 0 8 10" fill="none" xmlns="http://www.w3.org/2000/svg">
<path d="M0 8.5V7.5H1V4C1 3.30833 1.20833 2.69383 1.625 2.1565C2.04167 1.61917 2.58333 1.267 3.25 1.1V0.750001C3.25 0.541668 3.323 0.364668 3.469 0.219001C3.615 0.0733344 3.792 0.00033447 4 1.13636e-06C4.208 -0.000332197 4.38517 0.0726678 4.5315 0.219001C4.67783 0.365334 4.75067 0.542334 4.75 0.750001V1.1C5.41667 1.26667 5.95833 1.61883 6.375 2.1565C6.79167 2.69417 7 3.30867 7 4V7.5H8V8.5H0ZM4 10C3.725 10 3.48967 9.90217 3.294 9.7065C3.09833 9.51083 3.00033 9.27533 3 9H5C5 9.275 4.90217 9.5105 4.7065 9.7065C4.51083 9.9025 4.27533 10.0003 4 10Z" fill="white"/>
</svg>
